<svg width="366" height="353" viewBox="0 0 366 353" fill="none" xmlns="http://www.w3.org/2000/svg">
<path d="M0 183C0 149.763 9.05197 117.153 26.1842 88.6719C43.3164 60.1904 67.8819 36.9126 97.2437 21.3372C126.605 5.76184 159.655 -1.52291 192.844 0.264944C226.033 2.0528 258.108 12.8458 285.627 31.4852C313.146 50.1247 335.068 75.9068 349.042 106.064C363.015 136.221 368.512 169.614 364.941 202.659C361.37 235.704 348.868 267.152 328.775 293.628C308.682 320.105 281.758 340.609 250.893 352.94L228.194 296.122C248.739 287.914 266.662 274.265 280.037 256.641C293.412 239.017 301.734 218.083 304.111 196.086C306.488 174.09 302.829 151.861 293.527 131.787C284.226 111.712 269.633 94.5502 251.315 82.1426C232.997 69.7351 211.645 62.5506 189.553 61.3605C167.46 60.1704 145.46 65.0196 125.915 75.3875C106.37 85.7554 90.0182 101.251 78.6139 120.209C67.2097 139.168 61.1841 160.875 61.1841 183H0Z" fill="url(#paint0_linear_65_1275)"/>
<defs>
<linearGradient id="paint0_linear_65_1275" x1="183" y1="0" x2="183" y2="366" gradientUnits="userSpaceOnUse">
<stop stop-color="#0A561A"/>
<stop offset="1" stop-color="#009962" stop-opacity="0.54"/>
</linearGradient>
</defs>
</svg>
